# AST/ASF file generated using VICON BodyLanguage
# -----------------------------------------------
:version 1.10
:name VICON
:units
  mass 1.0
  length 0.45
  angle deg
:documentation
   .ast/.asf automatically generated from VICON data using
   VICON BodyBuilder and BodyLanguage model FoxedUp or BRILLIANT.MOD
:root
   order TX TY TZ RX RY RZ
   axis XYZ
   position 0 0 0  
   orientation 0 0 0 
:bonedata
  begin
     id 1 
     name lhipjoint
     direction 0.603808 -0.713975 0.35448 
     length 2.2025 
     axis 0 0 0  XYZ
  end
  begin
     id 2 
     name lfemur
     direction 0.34202 -0.939693 0  
     length 6.55877  
     axis 0 0 20  XYZ
    dof rx ry rz
    limits (-160.0 20.0)
           (-70.0 70.0)
           (-60.0 70.0)
  end
  begin
     id 3 
     name ltibia
     direction 0.34202 -0.939693 0   
     length 6.80302   
     axis 0 0 20   XYZ
    dof rx
    limits (-10.0 170.0)
  end
  begin
     id 4 
     name lfoot
     direction 0.091848 -0.25235 0.963267   
     length 2.03446   
     axis -90 7.62852e-016 20   XYZ
    dof rx rz
    limits (-45.0 90.0)
           (-70.0 20.0)
  end
  begin
     id 5 
     name ltoes
     direction 1.53608e-011 -4.21925e-011 1   
     length 1.02033   
     axis -90 7.62852e-016 20   XYZ
    dof rx
    limits (-90.0 20.0)
  end
  begin
     id 6 
     name rhipjoint
     direction -0.587285 -0.724947 0.359928   
     length 2.16916  
     axis 0 0 0  XYZ 
  end
  begin
     id 7 
     name rfemur
     direction -0.34202 -0.939693 0   
     length 6.43173   
     axis 0 0 -20   XYZ
    dof rx ry rz
    limits (-160.0 20.0)
           (-70.0 70.0)
           (-70.0 60.0)
  end
  begin
     id 8 
     name rtibia
     direction -0.34202 -0.939693 0   
     length 6.70662   
     axis 0 0 -20   XYZ
    dof rx
    limits (-10.0 170.0)
 end
 begin
     id 9 
     name rfoot
     direction -0.11854 -0.325686 0.938018   
     length 2.0773  
     axis -90 -7.62852e-016 -20   XYZ
    dof rx rz
    limits (-45.0 90.0)
           (-20.0 70.0)
  end
  begin
     id 10 
     name rtoes
     direction -1.53547e-011 -4.21838e-011 1   
     length 1.03267   
     axis -90 -7.62852e-016 -20   XYZ
    dof rx
    limits (-90.0 20.0)
  end
  begin
     id 11 
     name lowerback
     direction -0.0286554 0.999539 0.0100613   
     length 2.08751   
     axis 0 0 0   XYZ
    dof rx ry rz
    limits (-20.0 45.0)
           (-30.0 30.0)
           (-30.0 30.0)
  end
  begin
     id 12 
     name upperback
     direction 0.0227093 0.999705 -0.00860929   
     length 2.08517   
     axis 0 0 0   XYZ
    dof rx ry rz
    limits (-20.0 45.0)
           (-30.0 30.0)
           (-30.0 30.0)
  end
  begin
     id 13 
     name thorax
     direction 0.0351627 0.999285 -0.013892   
     length 2.08412   
     axis 0 0 0   XYZ
    dof rx ry rz
    limits (-20.0 45.0)
           (-30.0 30.0)
           (-30.0 30.0)
  end
  begin
     id 14 
     name lowerneck
     direction -0.0696283 0.997344 0.0213922   
     length 1.44164   
     axis 0 0 0   XYZ
    dof rx ry rz
    limits (-20.0 45.0)
           (-30.0 30.0)
           (-30.0 30.0)
  end
  begin
     id 15 
     name upperneck
     direction 0.0531 0.990412 -0.127531   
     length 1.45022   
     axis 0 0 0   XYZ
    dof rx ry rz
    limits (-20.0 45.0)
           (-30.0 30.0)
           (-30.0 30.0)
  end
  begin
     id 16
     name head
     direction 0.0188154 0.998548 -0.0504727  
     length 1.45845  
     axis 0 0 0   XYZ
    dof rx ry rz
    limits (-20.0 45.0)
           (-30.0 30.0)
           (-30.0 30.0)
  end
  begin
     id 17 
     name lclavicle
     direction 0.961559 0.260051 0.088188  
     length 2.86057  
     axis 0 0 0   XYZ
    dof ry rz
    limits (-20.0 10.0)
           (0.0 20.0)
  end
  begin
     id 18 
     name lhumerus
     direction 1 -4.48959e-011 2.88185e-027   
     length 4.36901   
     axis 180 -30 -90   XYZ
    dof rx ry rz
    limits (-60.0 90.0)
           (-90.0 90.0)
           (-90.0 90.0)
  end
  begin
     id 19
     name lradius
     direction 1 -4.48965e-011 -3.92618e-028   
     length 3.21737   
     axis 180 -30 -90   XYZ
    dof rx
    limits (-10.0 170.0)
  end
  begin
     id 20
     name lwrist
     direction 1 -4.49037e-011 2.57246e-027   
     length 1.60869   
     axis -1.61769e-015 90 90   XYZ
    dof ry
    limits (-180.0 0.0)
 end
  begin
     id 21 
     name lhand
     direction 1 -4.48807e-011 5.12958e-027   
     length 0.564313   
     axis -3.27988e-015 90 90   XYZ
    dof rx rz
    limits (-90.0 90.0)
           (-45.0 45.0)
  end
  begin
     id 22 
     name lfingers
     direction 1 -4.48879e-011 1.02687e-026   
     length 0.454963   
     axis -6.5598e-015 90 90   XYZ
    dof rx
    limits (0.0 90.0)
  end
  begin
     id 23
     name lthumb
     direction 0.707107 -6.3475e-011 0.707107   
     length 0.653239   
     axis -90 45 2.19363e-014   XYZ
    dof rx rz
    limits (-45.0 45.0)
           (-45.0 45.0)
  end
  begin
     id 24 
     name rclavicle
     direction -0.954677 0.253915 0.155304   
     length 3.11497  
     axis 0 0 0   XYZ 
    dof ry rz
    limits (-10.0 20.0)
           (-20.0 0.0)
  end
  begin
     id 25 
     name rhumerus
     direction -1 -4.48958e-011 -8.20169e-028  
     length 4.34118   
     axis 180 30 90   XYZ
    dof rx ry rz
    limits (-90.0 60.0)
           (-90.0 90.0)
           (-90.0 90.0)
  end
  begin
     id 26 
     name rradius
     direction -1 -4.48978e-011 1.5676e-027   
     length 3.09531   
     axis 180 30 90   XYZ
    dof rx
    limits (-10.0 170.0)
  end
  begin
     id 27 
     name rwrist
     direction -1 -4.49001e-011 2.57123e-027   
     length 1.54765   
     axis -1.61769e-015 -90 -90   XYZ
    dof ry
    limits (-180.0 0.0)
  end
  begin
     id 28
     name rhand
     direction -1 -4.48847e-011 5.13225e-027   
     length 0.597446   
     axis -3.27988e-015 -90 -90   XYZ
    dof rx rz
    limits (-90.0 90.0)
           (-45.0 45.0)
  end
  begin
     id 29
     name rfingers
     direction -1 -4.49094e-011 1.02974e-026   
     length 0.481677   
     axis -6.5598e-015 -90 -90   XYZ
    dof rx
    limits (0.0 90.0)
  end
  begin
     id 30
     name rthumb
     direction -0.707107 -6.34859e-011 0.707107   
     length 0.691594   
     axis -90 -45 -2.19363e-014   XYZ
    dof rx rz
    limits (-45.0 45.0)
           (-45.0 45.0)
  end
:hierarchy
  begin
    root lhipjoint rhipjoint lowerback
    lhipjoint lfemur
    lfemur ltibia
    ltibia lfoot
    lfoot ltoes
    rhipjoint rfemur
    rfemur rtibia
    rtibia rfoot
    rfoot rtoes
    lowerback upperback
    upperback thorax
    thorax lowerneck lclavicle rclavicle
    lowerneck upperneck
    upperneck head
    lclavicle lhumerus
    lhumerus lradius
    lradius lwrist
    lwrist lhand lthumb
    lhand lfingers
    rclavicle rhumerus
    rhumerus rradius
    rradius rwrist
    rwrist rhand rthumb
    rhand rfingers
  end

#!OML:ASF I:\Acrobat_Osman\acrobat\cartwheel_test 2\Patient 1\Session 1\acrobat.ASF
:FULLY-SPECIFIED
:DEGREES
194
root 10.8389 13.1864 13.1258 202.654 -9.53078 -173.863
lowerback 10.0292 4.05688 -8.65233
upperback 4.42057 4.0058 -2.4538
thorax -1.41637 1.70562 1.82811
lowerneck -4.10566 -9.96281 -13.8445
upperneck -16.0021 -12.8227 18.3331
head -1.8138 -7.12464 7.77521
rclavicle 4.21423e-014 -6.2816e-014
rhumerus -13.6222 32.8534 -86.6343
rradius 95.0341
rwrist 1.88688
rhand -21.9653 35.8758
rfingers 7.12502
rthumb 4.44226 5.94241
lclavicle 4.21423e-014 -6.2816e-014
lhumerus -41.7963 -2.19987 81.4099
lradius 79.855
lwrist 39.848
lhand -26.4749 49.0435
lfingers 7.12502
lthumb 0.087106 79.0233
rfemur -14.7293 -14.1565 21.7672
rtibia 78.3243
rfoot -15.9547 -13.1663
rtoes -22.8081
lfemur -81.9816 4.03802 -14.1371
ltibia 79.4812
lfoot -15.2707 9.13722
ltoes -43.8759
195
root 10.8344 13.0858 13.1027 202.003 -8.37132 -173.725
lowerback 11.0022 4.14347 -8.54045
upperback 4.74252 3.99718 -2.12497
thorax -1.62669 1.67742 2.06464
lowerneck -4.23536 -9.52922 -13.2508
upperneck -16.4525 -12.3161 17.6472
head -2.10652 -6.89988 7.52981
rclavicle 3.49861e-014 -3.26007e-014
rhumerus -16.303 28.3776 -88.1586
rradius 92.3952
rwrist 4.71133
rhand -21.4289 35.9861
rfingers 7.12502
rthumb 4.96021 6.06419
lclavicle 3.49861e-014 -3.26007e-014
lhumerus -38.9799 -3.43351 82.4212
lradius 79.1466
lwrist 38.1626
lhand -25.7449 47.8565
lfingers 7.12502
lthumb 0.792176 77.8348
rfemur -17.475 -13.9189 19.6115
rtibia 82.7662
rfoot -15.9494 -12.8788
rtoes -18.6124
lfemur -81.79 4.69082 -14.0949
ltibia 80.9702
lfoot -16.0528 10.1394
ltoes -43.9587
196
root 10.832 13.0018 13.1178 201.682 -7.45997 -173.728
lowerback 11.8672 4.04583 -8.23118
upperback 5.02503 3.79241 -1.72966
thorax -1.78936 1.55719 2.29784
lowerneck -4.29942 -8.95382 -12.8243
upperneck -16.9962 -11.6293 16.9553
head -2.4476 -6.58166 7.32535
rclavicle 3.26007e-014 -6.52014e-014
rhumerus -18.5741 23.7741 -88.698
rradius 90.2355
rwrist 7.67761
rhand -20.8401 36.2514
rfingers 7.12502
rthumb 5.52874 6.3435
lclavicle 3.26007e-014 -6.52014e-014
lhumerus -36.3902 -4.78901 83.6468
lradius 79.5836
lwrist 37.3491
lhand -25.8527 47.5603
lfingers 7.12502
lthumb 0.688018 77.539
rfemur -21.0229 -14.1785 17.439
rtibia 86.7403
rfoot -17.7596 -12.1275
rtoes -20.0333
lfemur -81.985 5.0138 -14.0696
ltibia 82.1259
lfoot -16.3714 10.9371
ltoes -43.8302
197
root 10.8287 12.9247 13.1563 201.431 -6.27897 -173.851
lowerback 12.7266 3.8386 -8.13767
upperback 5.26638 3.42896 -1.18893
thorax -1.99231 1.35775 2.83229
lowerneck -4.63415 -8.23122 -13.0588
upperneck -17.1008 -10.697 16.4358
head -2.59204 -6.08491 7.24701
rclavicle 3.97569e-015 -2.06736e-014
rhumerus -20.4897 20.1939 -88.1848
rradius 88.5927
rwrist 9.87869
rhand -20.1527 36.4474
rfingers 7.12502
rthumb 6.19239 6.55787
lclavicle 3.97569e-015 -2.06736e-014
lhumerus -34.1387 -5.69695 84.9049
lradius 80.8573
lwrist 37.483
lhand -26.3049 48.338
lfingers 7.12502
lthumb 0.25124 78.3176
rfemur -25.0954 -14.5058 15.0382
rtibia 90.2175
rfoot -19.129 -11.1721
rtoes -20.7711
lfemur -82.2228 5.47038 -14.2771
ltibia 82.9883
lfoot -16.1823 11.6931
ltoes -43.8309
198
root 10.8295 12.8815 13.2117 201.387 -4.85233 -174.091
lowerback 13.5622 3.65904 -8.26485
upperback 5.33792 3.08877 -0.626312
thorax -2.36645 1.18453 3.51681
lowerneck -4.97473 -7.49762 -13.1665
upperneck -16.9935 -9.75958 15.7207
head -2.6927 -5.56997 7.07057
rclavicle 2.38542e-015 1.59028e-014
rhumerus -22.248 17.4813 -86.8077
rradius 87.4097
rwrist 10.8467
rhand -20.1149 36.3818
rfingers 7.12502
rthumb 6.22885 6.49342
lclavicle 2.38542e-015 1.59028e-014
lhumerus -32.3458 -6.65953 85.9164
lradius 82.3411
lwrist 37.2154
lhand -25.671 47.1196
lfingers 7.12502
lthumb 0.863524 77.0976
rfemur -29.8254 -14.7598 12.7056
rtibia 92.8444
rfoot -20.2806 -10.1938
rtoes -21.2865
lfemur -82.4091 6.12842 -14.6954
ltibia 83.4497
lfoot -15.8107 12.3844
ltoes -43.9671
199
root 10.8304 12.8663 13.2785 200.998 -3.19539 -174.305
lowerback 14.9222 3.59868 -8.26603
upperback 5.38306 2.84234 -0.162385
thorax -3.04293 1.06133 4.00508
lowerneck -5.04543 -6.70139 -12.6458
upperneck -17.0231 -8.81366 14.5683
head -2.93072 -5.07384 6.66838
rclavicle 3.4191e-014 -1.35174e-014
rhumerus -23.7548 15.4501 -85.0214
rradius 86.5045
rwrist 10.4404
rhand -20.5969 35.8539
rfingers 7.12502
rthumb 5.76358 5.95228
lclavicle 3.4191e-014 -1.35174e-014
lhumerus -31.0039 -7.71718 86.5188
lradius 84.2576
lwrist 37.5138
lhand -24.7903 45.4757
lfingers 7.12502
lthumb 1.7141 75.4485
rfemur -34.2827 -14.7888 10.5176
rtibia 94.2842
rfoot -21.6915 -9.5034
rtoes -22.0062
lfemur -81.9464 6.92573 -15.0378
ltibia 83.5755
lfoot -15.5277 12.9902
ltoes -44.0379
200
root 10.8421 12.8662 13.3521 201.062 -1.49163 -174.51
lowerback 15.5148 3.45124 -8.09661
upperback 5.49975 2.59377 0.179487
thorax -3.21342 0.923126 4.30547
lowerneck -5.29407 -5.83429 -12.1673
upperneck -16.9884 -7.75782 13.5067
head -3.10955 -4.52486 6.28483
rclavicle 0 -5.48646e-014
rhumerus -24.5517 13.9852 -83.0245
rradius 85.7317
rwrist 8.84263
rhand -20.9111 35.372
rfingers 7.12502
rthumb 5.46019 5.46233
lclavicle 0 -5.48646e-014
lhumerus -29.6334 -8.63207 86.6539
lradius 86.3912
lwrist 37.9691
lhand -23.2103 44.7284
lfingers 7.12502
lthumb 3.24004 74.6835
rfemur -39.2448 -14.7816 8.83095
rtibia 94.5716
rfoot -23.1756 -9.12965
rtoes -22.4395
lfemur -81.8136 7.79478 -15.3246
ltibia 83.346
lfoot -15.0569 13.508
ltoes -44.1627
201
root 10.8638 12.9182 13.435 201.266 -0.0695803 -174.69
lowerback 15.8401 2.23152 -7.85411
upperback 5.73838 2.59646 0.40223
thorax -3.04619 1.56918 4.37395
lowerneck -5.7198 -5.03736 -11.8866
upperneck -16.8979 -6.76534 12.6549
head -3.19981 -4.00734 5.98115
rclavicle -7.95139e-016 3.18055e-015
rhumerus -24.7908 12.7593 -80.7327
rradius 85.1637
rwrist 6.88532
rhand -20.8498 35.2446
rfingers 7.12502
rthumb 5.5194 5.33649
lclavicle -7.95139e-016 3.18055e-015
lhumerus -28.3427 -9.73171 86.4572
lradius 88.7285
lwrist 38.8103
lhand -21.6224 44.0103
lfingers 7.12502
lthumb 4.77335 73.9365
rfemur -43.9785 -14.6529 7.7247
rtibia 93.3944
rfoot -24.4953 -9.21234
rtoes -23.3597
lfemur -81.4892 8.5048 -15.4834
ltibia 82.5223
lfoot -14.3446 13.8598
ltoes -44.4871
202
root 10.8994 12.9966 13.5365 201.619 1.17174 -174.956
lowerback 16.2277 1.99039 -7.20178
upperback 5.91314 2.3825 0.633384
thorax -3.03044 1.4691 4.28443
lowerneck -5.96719 -4.32544 -11.3978
upperneck -17.0144 -5.93301 11.6857
head -3.36204 -3.58967 5.61247
rclavicle -1.19271e-015 6.36111e-015
rhumerus -24.6407 11.7279 -78.2149
rradius 84.6208
rwrist 5.52664
rhand -20.6902 34.9792
rfingers 7.12502
rthumb 5.67345 5.07512
lclavicle -1.19271e-015 6.36111e-015
lhumerus -27.2908 -10.9444 85.9261
lradius 91.0817
lwrist 39.9193
lhand -20.7281 43.3078
lfingers 7.12502
lthumb 5.63683 73.2129
rfemur -48.4565 -14.2581 6.84765
rtibia 91.0156
rfoot -25.9774 -9.62904
rtoes -24.6801
lfemur -81.2077 9.11649 -15.6453
ltibia 81.2392
lfoot -13.4225 13.8963
ltoes -44.6478
203
root 10.942 13.1113 13.6572 201.981 2.40959 -175.516
lowerback 16.9087 1.78644 -6.6391
upperback 6.05174 2.19064 0.740266
thorax -3.20957 1.39166 4.10098
lowerneck -6.19133 -5.83234 -10.6926
upperneck -16.8864 -4.72856 11.1715
head -3.38673 -1.38601 5.22706
rclavicle 2.8625e-014 -7.15625e-015
rhumerus -24.0192 10.8026 -75.6896
rradius 83.8711
rwrist 5.27005
rhand -20.6111 34.7245
rfingers 7.12502
rthumb 5.74982 4.82253
lclavicle 2.8625e-014 -7.15625e-015
lhumerus -26.1702 -12.0449 85.2319
lradius 93.0706
lwrist 40.4864
lhand -20.3281 42.8694
lfingers 7.12502
lthumb 6.02309 72.7638
rfemur -52.4194 -13.4118 5.65214
rtibia 87.4837
rfoot -27.4281 -9.503
rtoes -24.8155
lfemur -80.6901 9.6456 -16.0902
ltibia 79.4349
lfoot -12.3638 13.7173
ltoes -44.3779
204
root 11.0054 13.2486 13.7924 202.573 3.44271 -175.98
lowerback 17.5274 1.58748 -5.92388
upperback 6.12356 2.03146 0.878118
thorax -3.43114 1.32864 3.85993
lowerneck -6.57421 -5.24916 -10.3036
upperneck -17.0436 -3.96539 10.179
head -3.50509 -0.97015 4.85257
rclavicle 1.47101e-014 -2.34566e-014
rhumerus -23.1551 9.90761 -73.2035
rradius 82.9935
rwrist 5.66924
rhand -20.5511 34.9424
rfingers 7.12502
rthumb 5.80772 5.04197
lclavicle 1.47101e-014 -2.34566e-014
lhumerus -24.9211 -13.0922 84.5452
lradius 94.5805
lwrist 39.8096
lhand -20.2289 42.6972
lfingers 7.12502
lthumb 6.11885 72.5888
rfemur -55.9754 -12.0827 4.49568
rtibia 83.0703
rfoot -27.8992 -8.37262
rtoes -25.9712
lfemur -80.3572 10.2985 -16.4522
ltibia 77.2589
lfoot -11.0097 13.1301
ltoes -44.219
205
root 11.0907 13.4101 13.9318 203.178 4.15315 -176.178
lowerback 18.1442 1.37761 -4.98271
upperback 6.22974 1.9248 1.13248
thorax -3.62104 1.29351 3.60569
lowerneck -7.05153 -4.71581 -9.66222
upperneck -17.1291 -3.30405 8.96472
head -3.57805 -0.608604 4.36029
rclavicle -7.95139e-015 2.38542e-015
rhumerus -22.0502 9.24023 -70.5145
rradius 82.1612
rwrist 5.57631
rhand -20.5456 35.0845
rfingers 7.12502
rthumb 5.81307 5.18422
lclavicle -7.95139e-015 2.38542e-015
lhumerus -23.466 -14.0223 83.7972
lradius 95.5775
lwrist 38.3724
lhand -19.9792 42.2374
lfingers 7.12502
lthumb 6.3599 72.1219
rfemur -58.6124 -10.3936 3.43709
rtibia 78.0059
rfoot -26.6348 -6.25401
rtoes -29.6115
lfemur -79.9216 11.0754 -16.5133
ltibia 74.7364
lfoot -9.45362 12.1001
ltoes -44.4387
206
root 11.1968 13.5828 14.0736 203.863 4.37986 -176.408
lowerback 18.6349 1.08363 -4.02222
upperback 6.33181 1.73704 1.47225
thorax -3.74452 1.21694 3.45302
lowerneck -7.34481 -4.17122 -8.78342
upperneck -17.3417 -2.67545 7.56893
head -3.71035 -0.2711 3.77571
rclavicle 2.06736e-014 9.93923e-016
rhumerus -20.5902 8.86651 -67.6993
rradius 81.1869
rwrist 4.68651
rhand -20.6375 35.0045
rfingers 7.12502
rthumb 5.72431 5.10186
lclavicle 2.06736e-014 9.93923e-016
lhumerus -21.8033 -14.8989 82.9995
lradius 96.1997
lwrist 36.9484
lhand -19.3037 41.503
lfingers 7.12502
lthumb 7.01203 71.3669
rfemur -60.422 -8.8515 2.28276
rtibia 72.774
rfoot -25.245 -3.04221
rtoes -32.1051
lfemur -79.5651 11.8077 -16.6105
ltibia 71.9369
lfoot -7.89049 10.5006
ltoes -44.5616
207
root 11.3316 13.7528 14.2187 204.558 3.99468 -176.697
lowerback 19.0347 0.688761 -3.03904
upperback 6.4014 1.44212 1.89796
thorax -3.85029 1.0882 3.4058
lowerneck -7.75291 -3.67396 -7.93158
upperneck -17.3515 -2.10633 6.37326
head -3.73631 0.0237306 3.25416
rclavicle 5.26779e-015 7.55382e-015
rhumerus -18.9156 8.62828 -64.9187
rradius 79.9141
rwrist 3.18244
rhand -20.9249 35.1424
rfingers 7.12502
rthumb 5.44683 5.23236
lclavicle 5.26779e-015 7.55382e-015
lhumerus -20.0968 -15.9585 82.1679
lradius 96.6961
lwrist 35.6683
lhand -18.9299 41.3837
lfingers 7.12502
lthumb 7.37284 71.2353
rfemur -61.464 -7.67006 1.2179
rtibia 68.0165
rfoot -23.2556 -1.63018
rtoes -35.2005
lfemur -79.3567 12.5085 -16.7397
ltibia 68.9911
lfoot -6.23153 8.19502
ltoes -44.143
